<svg width="35" height="35" viewBox="0 0 35 35" fill="none" xmlns="http://www.w3.org/2000/svg">
<path d="M31.6242 26.4677C31.6242 26.9777 31.5108 27.5018 31.27 28.0118C31.0292 28.5218 30.7175 29.0035 30.3067 29.4568C29.6125 30.2218 28.8475 30.7743 27.9833 31.1285C27.1333 31.4827 26.2125 31.6668 25.2208 31.6668C23.7758 31.6668 22.2317 31.3268 20.6025 30.6327C18.9733 29.9385 17.3442 29.0035 15.7292 27.8277C14.1 26.6377 12.5558 25.3202 11.0825 23.861C9.62333 22.3877 8.30583 20.8435 7.12999 19.2285C5.96833 17.6135 5.03333 15.9985 4.35333 14.3977C3.67333 12.7827 3.33333 11.2385 3.33333 9.76516C3.33333 8.80183 3.50333 7.881 3.84333 7.031C4.18333 6.16683 4.72166 5.3735 5.47249 4.66516C6.37916 3.77266 7.37083 3.3335 8.41916 3.3335C8.81583 3.3335 9.21249 3.4185 9.56666 3.5885C9.93499 3.7585 10.2608 4.0135 10.5158 4.38183L13.8025 9.01433C14.0575 9.3685 14.2417 9.69433 14.3692 10.006C14.4967 10.3035 14.5675 10.601 14.5675 10.8702C14.5675 11.2102 14.4683 11.5502 14.27 11.876C14.0858 12.2018 13.8167 12.5418 13.4767 12.8818L12.4 14.001C12.2442 14.1568 12.1733 14.341 12.1733 14.5677C12.1733 14.681 12.1875 14.7802 12.2158 14.8935C12.2583 15.0068 12.3008 15.0918 12.3292 15.1768C12.5842 15.6443 13.0233 16.2535 13.6467 16.9902C14.2842 17.7268 14.9642 18.4777 15.7008 19.2285C16.4658 19.9793 17.2025 20.6735 17.9533 21.311C18.69 21.9343 19.2992 22.3593 19.7808 22.6143C19.8517 22.6427 19.9367 22.6852 20.0358 22.7277C20.1492 22.7702 20.2625 22.7843 20.39 22.7843C20.6308 22.7843 20.815 22.6993 20.9708 22.5435L22.0475 21.481C22.4017 21.1268 22.7417 20.8577 23.0675 20.6877C23.3933 20.4893 23.7192 20.3902 24.0733 20.3902C24.3425 20.3902 24.6258 20.4468 24.9375 20.5743C25.2492 20.7018 25.575 20.886 25.9292 21.1268L30.6183 24.456C30.9867 24.711 31.2417 25.0085 31.3975 25.3627C31.5392 25.7168 31.6242 26.071 31.6242 26.4677Z" stroke="#292D32" stroke-width="2" stroke-miterlimit="10"/>
</svg>
